PathFileType	4	(X/Y/Z)	F:\biomechanics\vid_Sports2D\vid_Sports2D_px_person00.trc
DataRate	CameraRate	NumFrames	NumMarkers	Units	OrigDataRate	OrigDataStartFrame	OrigNumFrames
250.0	250.0	11	22	m	250.0	707	808
Frame#	Time	Hip			RHip			RKnee			RAnkle			RBigToe			RSmallToe			RHeel			LHip			LKnee			LAnkle			LBigToe			LSmallToe			LHeel			Neck			Head			Nose			RShoulder			RElbow			RWrist			LShoulder			LElbow			LWrist			
		X1	Y1	Z1	X2	Y2	Z2	X3	Y3	Z3	X4	Y4	Z4	X5	Y5	Z5	X6	Y6	Z6	X7	Y7	Z7	X8	Y8	Z8	X9	Y9	Z9	X10	Y10	Z10	X11	Y11	Z11	X12	Y12	Z12	X13	Y13	Z13	X14	Y14	Z14	X15	Y15	Z15	X16	Y16	Z16	X17	Y17	Z17	X18	Y18	Z18	X19	Y19	Z19	X20	Y20	Z20	X21	Y21	Z21	X22	Y22	Z22
707	2.8315043370508057	306.97427895287746	305.43439340887045	0.0	311.780095405873	303.2850010743318	0.0	346.48534921321766	374.0044704644511	0.0	324.6651611267269	449.885651360071	0.0	354.27176332179886	458.36126990761187	0.0	348.0402395964977	462.9879620906138	0.0	314.89273177360394	458.24811749261437	0.0	300.78754184561745	302.8835336686056	0.0	335.0073067321881	371.8592227209269	0.0	320.4372633457655	439.86153759460205	0.0	349.24811669869536	446.6890162449447	0.0	346.40916668036385	445.0160785838939	0.0	309.7052159506744	447.3589285648244	0.0	299.04355644130914	207.25148156954342	0.0	294.98094758320605	159.43501733986722	0.0	314.1074968463657	177.19890146415514	0.0	310.7975223971738	221.54901823774307	0.0	364.4179228607792	204.56609409242833	0.0	404.2456087208668	180.0741397144243	0.0	285.2648137871575	222.89248781949615	0.0	325.75148819609404	213.75016892971541	0.0	350.6935647562192	190.13799793711215	0.0
708	2.835509293680298	306.9956484400202	306.152020771417	0.0	311.80376880942174	303.9749227581129	0.0	346.7229142573915	374.5916977062833	0.0	324.4400316421994	450.3035990604465	0.0	354.2145633276299	458.41228474802574	0.0	347.99689457674805	463.05367288638047	0.0	314.6579007701883	458.6542726175039	0.0	300.70558766861325	303.58514853463765	0.0	335.1049002878012	372.4263888507811	0.0	320.2825658047818	440.24342950381435	0.0	349.1540345514023	446.957784220229	0.0	346.24450107807485	445.2623790646171	0.0	309.69964209561806	447.7449632160362	0.0	299.16111070470095	207.89679659902683	0.0	295.3273509578496	160.08697380972072	0.0	314.26937373732085	177.92776858999352	0.0	310.91493672658464	222.40499305035357	0.0	364.6692454294945	205.86753327169566	0.0	404.76502375371876	181.72089108634668	0.0	285.2358066518947	223.6430592268751	0.0	325.2583610253914	215.17369416337854	0.0	349.19000255898584	191.87742973954005	0.0
709	2.8395142503097897	307.0155287261653	306.8511110138556	0.0	311.8229860114216	304.6525512531159	0.0	346.97300515488166	375.14857664469116	0.0	324.2402497171757	450.69444111923616	0.0	354.16294326982273	458.46499629070445	0.0	347.9508979283792	463.1178702289592	0.0	314.44933889806117	459.021622909893	0.0	300.6309128377923	304.2730307358612	0.0	335.2205612278215	372.96432563521216	0.0	320.1511738111749	440.5987668231181	0.0	349.08029815978904	447.2152247516008	0.0	346.099344521016	445.4988147753808	0.0	309.7114827330528	448.1053441402255	0.0	299.27792354102303	208.52529550906777	0.0	295.66985703840066	160.7259079138215	0.0	314.43049341844585	178.64036432499506	0.0	311.0269228538443	223.24629805249347	0.0	364.9165429008245	207.16878870806292	0.0	405.28090030200207	183.37368482386012	0.0	285.2136954520194	224.37226793827452	0.0	324.8124358012426	216.61062028907125	0.0	347.68674517275963	193.61942900425007	0.0
710	2.843519206939282	307.03350546909763	307.5322842101843	0.0	311.8374138204056	305.3179249208804	0.0	347.23747876212803	375.6739122542821	0.0	324.0658570144714	451.0574914988399	0.0	354.1165121802026	458.5195717950763	0.0	347.90292267729836	463.1805587342725	0.0	314.26679342555116	459.35005822239134	0.0	300.562841826325	304.9472932770121	0.0	335.3560787527436	373.47175697939997	0.0	320.04337848866635	440.92801688566084	0.0	349.026417786616	447.461524815441	0.0	345.973418506791	445.7268745654402	0.0	309.74025382004857	448.4407430572742	0.0	299.39417571647067	209.1371235458284	0.0	296.0082639912308	161.3518162095027	0.0	314.5912289404945	179.3365513379523	0.0	311.13232321673496	224.07202680966344	0.0	365.1605825864029	208.4700396707681	0.0	405.7932158582919	185.03312446053386	0.0	285.1997590288577	225.08036088557665	0.0	324.4177393030229	218.0616279208404	0.0	346.18864829817824	195.36504781158266	0.0
711	2.8475241635687736	307.0491745028539	308.196310014512	0.0	311.84668341299096	305.97121309260353	0.0	347.51780823544004	376.16673683915786	0.0	323.9167176946296	451.39222589173795	0.0	354.0747956862789	458.57604414785413	0.0	347.85367498153215	463.24159041181935	0.0	314.1097936889488	459.63980483163675	0.0	300.50048838796624	305.6080777782516	0.0	335.512929396876	373.94766940613005	0.0	319.9591682510893	441.2316386331773	0.0	348.9913727088454	447.6963544625568	0.0	345.8660962535684	445.9475392967305	0.0	309.7855241452782	448.7517974972937	0.0	299.5101248099827	209.73252236315207	0.0	296.34242343383397	161.96450948034465	0.0	314.75186740684813	180.01617997699552	0.0	311.23009087673563	224.88117032219193	0.0	365.4017817747547	209.77149709463953	0.0	406.3015559686527	186.70007916180853	0.0	285.19530836116724	225.76758361270436	0.0	324.08306876104365	219.52732553205846	0.0	344.71286266246517	197.11520112550627	0.0
712	2.8515291201982658	307.0621460225803	308.8440623100239	0.0	311.85038767802956	306.612614159842	0.0	347.8149860308223	376.6263051287029	0.0	323.7925206072579	451.69836186456877	0.0	354.03726092609014	458.6343074076554	0.0	347.8038167803166	463.300657534227	0.0	313.9776058012581	459.89127662108456	0.0	300.44278058412164	306.255447883232	0.0	335.6922470895462	374.39128293195716	0.0	319.89827102978825	441.51011597121624	0.0	348.9736843181093	447.9189673906547	0.0	345.776447933532	446.1612729400991	0.0	309.8466967080694	449.0390328475497	0.0	299.62599552228187	210.31174655279804	0.0	296.67203639730394	162.56363114138958	0.0	314.91247612738226	180.6789917933682	0.0	311.319086276078	225.67277634791256	0.0	365.64016238800275	211.07352123498416	0.0	406.80503119430756	188.37574461722613	0.0	285.2016314419038	226.43431213893683	0.0	323.82097331672355	221.0076731498245	0.0	343.28989898388375	198.87104618556776	0.0
713	2.8555340768277575	307.07198788219347	309.47637796804986	0.0	311.84807444802266	307.2422838836201	0.0	348.12946539925736	377.0520888803104	0.0	323.6928404629259	451.9757218853354	0.0	354.0032496736935	458.6941383263403	0.0	347.7538403386103	463.3573477744052	0.0	313.8692249587776	460.10506981229406	0.0	300.38854959734795	306.8894639196366	0.0	335.8947297014503	374.80209288018847	0.0	319.86025795720855	441.76402252777456	0.0	348.9715443073967	448.12854975375444	0.0	345.7033239128245	446.36814690439996	0.0	309.92288406326105	449.302768198119	0.0	299.74198301120487	210.87501478601285	0.0	296.99667414954024	163.14858070139772	0.0	315.072960848181	181.32471848078194	0.0	311.39838110706967	226.44595964201918	0.0	365.8755622128175	212.3765316914752	0.0	407.3025391328972	190.06149382126665	0.0	285.21994176396623	227.08103229041458	0.0	323.6466058287821	222.5012727001667	0.0	341.96398639552376	200.63360198926256	0.0
714	2.8595390334572497	307.07820139119	310.09399977789116	0.0	311.8392695745591	307.8603786639585	0.0	348.46110528617197	377.4438704616981	0.0	323.61711523127605	452.2241643496565	0.0	353.97197534229554	458.75522092097896	0.0	347.7040717506464	463.4112574028509	0.0	313.7834369325185	460.2820573804175	0.0	300.3366676959362	307.51031347573274	0.0	336.1204821022868	375.1799516975991	0.0	319.84465912727086	441.9939837616287	0.0	348.9830046397786	448.32441574261844	0.0	345.64544257307296	446.56778643480635	0.0	310.01296122894144	449.54310358601924	0.0	299.85831329087347	211.42254990228773	0.0	297.3159271087477	163.7185419128705	0.0	315.23317708228967	181.95319173991632	0.0	311.4677435366298	227.19981788745721	0.0	366.1079627536942	213.68073057736262	0.0	407.7931129761776	191.75869490637092	0.0	285.25141023196664	227.70828595859956	0.0	323.57613504379134	224.00542066979884	0.0	340.7890683624512	202.40345401754794	0.0
715	2.8635439900867414	307.08026044624086	310.6976571516035	0.0	311.8234839637141	308.4670189101212	0.0	348.8091357756403	377.8018298673443	0.0	323.56448489201046	452.4437710982551	0.0	353.94265056742904	458.8171620295281	0.0	347.6547650878581	463.46205452871516	0.0	313.71888080249107	460.42345119785466	0.0	300.2861655044686	308.1182130803323	0.0	336.3689392831981	375.52501181548325	0.0	319.8510317878558	442.2006229444316	0.0	349.0061414170161	448.50578618527675	0.0	345.6014408719658	446.75923170511936	0.0	310.1156842973908	449.76010704295487	0.0	299.9752485319585	211.95462287223967	0.0	297.62943603371303	164.27268627320532	0.0	315.3929444552392	182.56431847567956	0.0	311.52763623977677	227.93342475888164	0.0	366.3375970844607	214.98590956407344	0.0	408.2760040053553	193.4686909338706	0.0	285.2971988976005	228.31670158323374	0.0	323.624903936276	225.51707184634202	0.0	339.8193763132595	204.18118037720316	0.0
716	2.867548946716233	307.07767668535985	311.28808932711803	0.0	311.800203110077	309.06219066833995	0.0	349.1722480327403	378.12649156614594	0.0	323.53367765027593	452.6350352569211	0.0	353.9146153283018	458.87950419078777	0.0	347.6061108555267	463.5094282898379	0.0	313.6740950863098	460.530820927638	0.0	300.2362893195991	308.7132487170869	0.0	336.6390671590494	375.83758538470795	0.0	319.87898119101715	442.3846801451098	0.0	349.03912917279007	448.6716497742972	0.0	345.5699039232484	446.9410849934605	0.0	310.22974437406583	449.95401677889265	0.0	300.09304203305294	212.47152143570565	0.0	297.93677709550354	164.81032216380348	0.0	315.5520523695637	183.15801816656275	0.0	311.57886942979263	228.64587836422703	0.0	366.56482738544247	216.29149023766905	0.0	408.75059230923216	195.1928107637085	0.0	285.3584388928085	228.9069647263308	0.0	323.80562579292365	227.03322126036426	0.0	339.1020626949859	205.96773465807308	0.0
717	2.8715539033457254	307.07007688683154	311.8659199876044	0.0	311.7689432966307	309.64574146062466	0.0	349.5487451378497	378.4185920869371	0.0	323.52308179793846	452.79886537128914	0.0	353.88739633116063	458.94171764896623	0.0	347.5582006382716	463.55303736562735	0.0	313.6475753589573	460.6061453142142	0.0	300.18649989296887	309.29543063424734	0.0	336.9297681224132	376.11808485097987	0.0	319.92815368822534	442.5471580940289	0.0	349.08024652057316	448.8210424752339	0.0	345.54940217747213	447.1118320695353	0.0	310.3538050378481	450.12531523474803	0.0	300.21188956257913	212.97350646131008	0.0	298.2373670997514	165.33081517970194	0.0	315.710308415499	183.73416153411458	0.0	311.6223755630757	229.3363558750953	0.0	366.7899176058059	217.59676021870172	0.0	409.2163315753496	196.93232978845788	0.0	285.4361858913355	229.47967545157022	0.0	324.12683049515476	228.5502388269241	0.0	338.67545326151827	207.76414528991899	0.0
